<svg width="94" height="153" viewBox="0 0 94 153" fill="none" xmlns="http://www.w3.org/2000/svg">
<path d="M7.66514 125.629H8.65914L5.10314 131.719V135.499H4.17914V131.719L0.623141 125.629H1.61714L4.50114 130.585V131.285H4.78114V130.585L7.66514 125.629ZM8.69939 130.557C8.69939 127.687 10.3654 125.489 13.2214 125.489C16.0634 125.489 17.7294 127.687 17.7294 130.557C17.7294 133.441 16.0634 135.639 13.2214 135.639C10.3654 135.639 8.69939 133.441 8.69939 130.557ZM9.62339 130.557C9.62339 133.021 10.7994 134.855 13.2214 134.855C15.6434 134.855 16.8054 133.021 16.8054 130.557C16.8054 128.107 15.6434 126.273 13.2214 126.273C10.7994 126.273 9.62339 128.107 9.62339 130.557ZM19.4422 131.831V125.629H20.3662V131.817C20.3662 133.861 21.1782 134.855 23.2362 134.855C25.2942 134.855 26.1202 133.861 26.1202 131.817V125.629H27.0442V131.831C27.0442 134.295 25.8822 135.639 23.2362 135.639C20.5902 135.639 19.4422 134.295 19.4422 131.831ZM41.3392 133.049C41.3392 134.477 40.5272 135.639 37.6292 135.639C34.2132 135.639 33.2612 134.099 33.2612 131.831H34.1852C34.1852 134.323 35.5292 134.855 37.6292 134.855C39.3512 134.855 40.4152 134.435 40.4152 133.119C40.4152 131.467 38.5672 131.159 36.9712 130.697C35.0532 130.137 33.7092 129.605 33.7092 127.897C33.7092 126.413 34.7172 125.489 37.1252 125.489C40.0092 125.489 40.9332 127.309 40.9332 128.849H40.0092C40.0092 127.085 38.6932 126.273 37.1252 126.273C35.6972 126.273 34.6332 126.637 34.6332 127.841C34.6332 129.003 35.6272 129.409 37.2512 129.913C39.2112 130.515 41.3392 130.991 41.3392 133.049ZM49.9624 125.629H50.8864V135.499H49.9624V131.005H43.9704V135.499H43.0464V125.629H43.9704V130.221H49.9624V125.629ZM52.5998 130.557C52.5998 127.687 54.2658 125.489 57.1218 125.489C59.9638 125.489 61.6298 127.687 61.6298 130.557C61.6298 133.441 59.9638 135.639 57.1218 135.639C54.2658 135.639 52.5998 133.441 52.5998 130.557ZM53.5238 130.557C53.5238 133.021 54.6998 134.855 57.1218 134.855C59.5438 134.855 60.7058 133.021 60.7058 130.557C60.7058 128.107 59.5438 126.273 57.1218 126.273C54.6998 126.273 53.5238 128.107 53.5238 130.557ZM63.3426 131.831V125.629H64.2666V131.817C64.2666 133.861 65.0786 134.855 67.1366 134.855C69.1946 134.855 70.0206 133.861 70.0206 131.817V125.629H70.9446V131.831C70.9446 134.295 69.7826 135.639 67.1366 135.639C64.4906 135.639 63.3426 134.295 63.3426 131.831ZM73.5664 135.639C73.0764 135.653 72.7964 135.359 72.7964 134.869V125.629H73.7204V134.855L78.7184 134.715V135.499L73.5664 135.639ZM83.3126 125.629C85.6646 125.629 88.1706 126.315 88.1706 130.557C88.1706 134.813 85.6646 135.499 83.3126 135.499H80.2886V125.629H83.3126ZM83.3126 134.715C85.0626 134.715 87.2466 134.379 87.2466 130.557C87.2466 126.749 85.0626 126.413 83.3126 126.413H81.2126V134.715H83.3126ZM9.32649 147.049C9.32649 148.477 8.51449 149.639 5.61649 149.639C2.20049 149.639 1.24849 148.099 1.24849 145.831H2.17249C2.17249 148.323 3.51649 148.855 5.61649 148.855C7.33849 148.855 8.40249 148.435 8.40249 147.119C8.40249 145.467 6.55449 145.159 4.95849 144.697C3.04049 144.137 1.69649 143.605 1.69649 141.897C1.69649 140.413 2.70449 139.489 5.11249 139.489C7.99649 139.489 8.92049 141.309 8.92049 142.849H7.99649C7.99649 141.085 6.68049 140.273 5.11249 140.273C3.68449 140.273 2.62049 140.637 2.62049 141.841C2.62049 143.003 3.61449 143.409 5.23849 143.913C7.19849 144.515 9.32649 144.991 9.32649 147.049ZM10.4699 144.557C10.4699 141.687 12.1359 139.489 14.9919 139.489C17.4699 139.489 19.0799 141.001 19.3739 143.437H18.4499C18.2259 141.435 17.0359 140.273 14.9919 140.273C12.5699 140.273 11.3939 142.107 11.3939 144.557C11.3939 147.021 12.5699 148.855 14.9919 148.855C17.0359 148.855 18.2259 147.679 18.4499 145.677H19.3739C19.0799 148.127 17.4699 149.639 14.9919 149.639C12.1359 149.639 10.4699 147.441 10.4699 144.557ZM21.0826 149.499V139.629H24.2466C26.5986 139.629 27.9846 140.175 27.9846 142.387C27.9846 143.843 27.3266 144.543 26.2766 144.739V145.019H27.4106C27.9286 145.019 28.1106 145.215 28.1106 145.677V149.499H27.1866V145.439H22.0066V149.499H21.0826ZM22.0066 144.655H24.2466C25.9966 144.655 27.0606 144.459 27.0606 142.527C27.0606 140.595 25.9966 140.413 24.2466 140.413H22.0066V144.655ZM29.8293 144.557C29.8293 141.687 31.4953 139.489 34.3513 139.489C37.1933 139.489 38.8593 141.687 38.8593 144.557C38.8593 147.441 37.1933 149.639 34.3513 149.639C31.4953 149.639 29.8293 147.441 29.8293 144.557ZM30.7533 144.557C30.7533 147.021 31.9293 148.855 34.3513 148.855C36.7733 148.855 37.9353 147.021 37.9353 144.557C37.9353 142.107 36.7733 140.273 34.3513 140.273C31.9293 140.273 30.7533 142.107 30.7533 144.557ZM41.3486 149.639C40.8586 149.653 40.5786 149.359 40.5786 148.869V139.629H41.5026V148.855L46.5006 148.715V149.499L41.3486 149.639ZM48.8408 149.639C48.3508 149.653 48.0708 149.359 48.0708 148.869V139.629H48.9948V148.855L53.9928 148.715V149.499L48.8408 149.639ZM60.3482 149.499V139.629H62.7842C65.1362 139.629 66.5222 140.105 66.5222 142.051C66.5222 143.395 65.6402 144.095 64.6322 144.165V144.445C66.1442 144.473 67.2502 145.187 67.2502 146.881C67.2502 148.813 65.8642 149.499 63.5122 149.499H60.3482ZM61.2722 143.969H62.7842C64.5342 143.969 65.5982 143.689 65.5982 142.191C65.5982 140.539 64.5342 140.413 62.7842 140.413H61.2722V143.969ZM61.2722 148.715H63.5122C65.2622 148.715 66.3262 148.379 66.3262 146.741C66.3262 145.229 65.2622 144.753 63.5122 144.753H61.2722V148.715ZM75.7411 149.499L74.4251 145.495H70.4771L69.1611 149.499H68.2511L71.4991 139.629H73.4031L76.6511 149.499H75.7411ZM70.7291 144.711H74.1731L72.5911 139.909H72.3111L70.7291 144.711ZM78.0806 149.499V139.629H80.5166C82.8686 139.629 84.2546 140.105 84.2546 142.051C84.2546 143.395 83.3726 144.095 82.3646 144.165V144.445C83.8766 144.473 84.9826 145.187 84.9826 146.881C84.9826 148.813 83.5966 149.499 81.2446 149.499H78.0806ZM79.0046 143.969H80.5166C82.2666 143.969 83.3306 143.689 83.3306 142.191C83.3306 140.539 82.2666 140.413 80.5166 140.413H79.0046V143.969ZM79.0046 148.715H81.2446C82.9946 148.715 84.0586 148.379 84.0586 146.741C84.0586 145.229 82.9946 144.753 81.2446 144.753H79.0046V148.715ZM86.6939 149.499V139.629H92.6159V140.413H87.6179V144.165H91.9159V144.949H87.6179V148.715H92.6159V149.499H86.6939Z" fill="#E35353"/>
<path d="M44.4667 101.559C45.0525 102.145 46.0022 102.145 46.588 101.559L56.1339 92.0135C56.7197 91.4277 56.7197 90.478 56.1339 89.8922C55.5482 89.3064 54.5984 89.3064 54.0126 89.8922L45.5273 98.3775L37.0421 89.8922C36.4563 89.3064 35.5065 89.3064 34.9207 89.8922C34.335 90.478 34.335 91.4277 34.9207 92.0135L44.4667 101.559ZM44.0273 -6.55671e-08L44.0273 100.499L47.0273 100.499L47.0273 6.55671e-08L44.0273 -6.55671e-08Z" fill="url(#paint0_linear_786_951)"/>
<defs>
<linearGradient id="paint0_linear_786_951" x1="45.5273" y1="0" x2="45.5272" y2="115.309" gradientUnits="userSpaceOnUse">
<stop stop-color="#240F40"/>
<stop offset="1" stop-color="#E35353"/>
</linearGradient>
</defs>
</svg>
