<svg width="94" height="94" viewBox="0 0 94 94" fill="none" xmlns="http://www.w3.org/2000/svg">
<path d="M7.66514 66.629H8.65914L5.10314 72.719V76.499H4.17914V72.719L0.623141 66.629H1.61714L4.50114 71.585V72.285H4.78114V71.585L7.66514 66.629ZM8.69939 71.557C8.69939 68.687 10.3654 66.489 13.2214 66.489C16.0634 66.489 17.7294 68.687 17.7294 71.557C17.7294 74.441 16.0634 76.639 13.2214 76.639C10.3654 76.639 8.69939 74.441 8.69939 71.557ZM9.62339 71.557C9.62339 74.021 10.7994 75.855 13.2214 75.855C15.6434 75.855 16.8054 74.021 16.8054 71.557C16.8054 69.107 15.6434 67.273 13.2214 67.273C10.7994 67.273 9.62339 69.107 9.62339 71.557ZM19.4422 72.831V66.629H20.3662V72.817C20.3662 74.861 21.1782 75.855 23.2362 75.855C25.2942 75.855 26.1202 74.861 26.1202 72.817V66.629H27.0442V72.831C27.0442 75.295 25.8822 76.639 23.2362 76.639C20.5902 76.639 19.4422 75.295 19.4422 72.831ZM41.3392 74.049C41.3392 75.477 40.5272 76.639 37.6292 76.639C34.2132 76.639 33.2612 75.099 33.2612 72.831H34.1852C34.1852 75.323 35.5292 75.855 37.6292 75.855C39.3512 75.855 40.4152 75.435 40.4152 74.119C40.4152 72.467 38.5672 72.159 36.9712 71.697C35.0532 71.137 33.7092 70.605 33.7092 68.897C33.7092 67.413 34.7172 66.489 37.1252 66.489C40.0092 66.489 40.9332 68.309 40.9332 69.849H40.0092C40.0092 68.085 38.6932 67.273 37.1252 67.273C35.6972 67.273 34.6332 67.637 34.6332 68.841C34.6332 70.003 35.6272 70.409 37.2512 70.913C39.2112 71.515 41.3392 71.991 41.3392 74.049ZM49.9624 66.629H50.8864V76.499H49.9624V72.005H43.9704V76.499H43.0464V66.629H43.9704V71.221H49.9624V66.629ZM52.5998 71.557C52.5998 68.687 54.2658 66.489 57.1218 66.489C59.9638 66.489 61.6298 68.687 61.6298 71.557C61.6298 74.441 59.9638 76.639 57.1218 76.639C54.2658 76.639 52.5998 74.441 52.5998 71.557ZM53.5238 71.557C53.5238 74.021 54.6998 75.855 57.1218 75.855C59.5438 75.855 60.7058 74.021 60.7058 71.557C60.7058 69.107 59.5438 67.273 57.1218 67.273C54.6998 67.273 53.5238 69.107 53.5238 71.557ZM63.3426 72.831V66.629H64.2666V72.817C64.2666 74.861 65.0786 75.855 67.1366 75.855C69.1946 75.855 70.0206 74.861 70.0206 72.817V66.629H70.9446V72.831C70.9446 75.295 69.7826 76.639 67.1366 76.639C64.4906 76.639 63.3426 75.295 63.3426 72.831ZM73.5664 76.639C73.0764 76.653 72.7964 76.359 72.7964 75.869V66.629H73.7204V75.855L78.7184 75.715V76.499L73.5664 76.639ZM83.3126 66.629C85.6646 66.629 88.1706 67.315 88.1706 71.557C88.1706 75.813 85.6646 76.499 83.3126 76.499H80.2886V66.629H83.3126ZM83.3126 75.715C85.0626 75.715 87.2466 75.379 87.2466 71.557C87.2466 67.749 85.0626 67.413 83.3126 67.413H81.2126V75.715H83.3126ZM9.32649 88.049C9.32649 89.477 8.51449 90.639 5.61649 90.639C2.20049 90.639 1.24849 89.099 1.24849 86.831H2.17249C2.17249 89.323 3.51649 89.855 5.61649 89.855C7.33849 89.855 8.40249 89.435 8.40249 88.119C8.40249 86.467 6.55449 86.159 4.95849 85.697C3.04049 85.137 1.69649 84.605 1.69649 82.897C1.69649 81.413 2.70449 80.489 5.11249 80.489C7.99649 80.489 8.92049 82.309 8.92049 83.849H7.99649C7.99649 82.085 6.68049 81.273 5.11249 81.273C3.68449 81.273 2.62049 81.637 2.62049 82.841C2.62049 84.003 3.61449 84.409 5.23849 84.913C7.19849 85.515 9.32649 85.991 9.32649 88.049ZM10.4699 85.557C10.4699 82.687 12.1359 80.489 14.9919 80.489C17.4699 80.489 19.0799 82.001 19.3739 84.437H18.4499C18.2259 82.435 17.0359 81.273 14.9919 81.273C12.5699 81.273 11.3939 83.107 11.3939 85.557C11.3939 88.021 12.5699 89.855 14.9919 89.855C17.0359 89.855 18.2259 88.679 18.4499 86.677H19.3739C19.0799 89.127 17.4699 90.639 14.9919 90.639C12.1359 90.639 10.4699 88.441 10.4699 85.557ZM21.0826 90.499V80.629H24.2466C26.5986 80.629 27.9846 81.175 27.9846 83.387C27.9846 84.843 27.3266 85.543 26.2766 85.739V86.019H27.4106C27.9286 86.019 28.1106 86.215 28.1106 86.677V90.499H27.1866V86.439H22.0066V90.499H21.0826ZM22.0066 85.655H24.2466C25.9966 85.655 27.0606 85.459 27.0606 83.527C27.0606 81.595 25.9966 81.413 24.2466 81.413H22.0066V85.655ZM29.8293 85.557C29.8293 82.687 31.4953 80.489 34.3513 80.489C37.1933 80.489 38.8593 82.687 38.8593 85.557C38.8593 88.441 37.1933 90.639 34.3513 90.639C31.4953 90.639 29.8293 88.441 29.8293 85.557ZM30.7533 85.557C30.7533 88.021 31.9293 89.855 34.3513 89.855C36.7733 89.855 37.9353 88.021 37.9353 85.557C37.9353 83.107 36.7733 81.273 34.3513 81.273C31.9293 81.273 30.7533 83.107 30.7533 85.557ZM41.3486 90.639C40.8586 90.653 40.5786 90.359 40.5786 89.869V80.629H41.5026V89.855L46.5006 89.715V90.499L41.3486 90.639ZM48.8408 90.639C48.3508 90.653 48.0708 90.359 48.0708 89.869V80.629H48.9948V89.855L53.9928 89.715V90.499L48.8408 90.639ZM60.3482 90.499V80.629H62.7842C65.1362 80.629 66.5222 81.105 66.5222 83.051C66.5222 84.395 65.6402 85.095 64.6322 85.165V85.445C66.1442 85.473 67.2502 86.187 67.2502 87.881C67.2502 89.813 65.8642 90.499 63.5122 90.499H60.3482ZM61.2722 84.969H62.7842C64.5342 84.969 65.5982 84.689 65.5982 83.191C65.5982 81.539 64.5342 81.413 62.7842 81.413H61.2722V84.969ZM61.2722 89.715H63.5122C65.2622 89.715 66.3262 89.379 66.3262 87.741C66.3262 86.229 65.2622 85.753 63.5122 85.753H61.2722V89.715ZM75.7411 90.499L74.4251 86.495H70.4771L69.1611 90.499H68.2511L71.4991 80.629H73.4031L76.6511 90.499H75.7411ZM70.7291 85.711H74.1731L72.5911 80.909H72.3111L70.7291 85.711ZM78.0806 90.499V80.629H80.5166C82.8686 80.629 84.2546 81.105 84.2546 83.051C84.2546 84.395 83.3726 85.095 82.3646 85.165V85.445C83.8766 85.473 84.9826 86.187 84.9826 87.881C84.9826 89.813 83.5966 90.499 81.2446 90.499H78.0806ZM79.0046 84.969H80.5166C82.2666 84.969 83.3306 84.689 83.3306 83.191C83.3306 81.539 82.2666 81.413 80.5166 81.413H79.0046V84.969ZM79.0046 89.715H81.2446C82.9946 89.715 84.0586 89.379 84.0586 87.741C84.0586 86.229 82.9946 85.753 81.2446 85.753H79.0046V89.715ZM86.6939 90.499V80.629H92.6159V81.413H87.6179V85.165H91.9159V85.949H87.6179V89.715H92.6159V90.499H86.6939Z" fill="#E35353"/>
<path d="M43.9185 41.912C44.5043 42.4978 45.454 42.4978 46.0398 41.912L55.5857 32.3661C56.1715 31.7803 56.1715 30.8305 55.5857 30.2447C54.9999 29.659 54.0502 29.659 53.4644 30.2447L44.9791 38.73L36.4938 30.2447C35.9081 29.659 34.9583 29.659 34.3725 30.2447C33.7867 30.8305 33.7867 31.7803 34.3725 32.3661L43.9185 41.912ZM43.4791 0.428711L43.4791 40.8513L46.4791 40.8513L46.4791 0.428711L43.4791 0.428711Z" fill="url(#paint0_linear_817_978)"/>
<defs>
<linearGradient id="paint0_linear_817_978" x1="44.9791" y1="0.428711" x2="44.9791" y2="46.8082" gradientUnits="userSpaceOnUse">
<stop stop-color="#240F40"/>
<stop offset="1" stop-color="#E35353"/>
</linearGradient>
</defs>
</svg>
