<svg width="448" height="448" viewBox="0 0 448 448" fill="none" xmlns="http://www.w3.org/2000/svg">
<g clip-path="url(#clip0_644_1511)">
<path d="M116.668 270.667L92.1289 271.151C81.3196 271.327 70.5835 269.35 60.5461 265.334C50.5088 261.319 41.3709 255.346 33.665 247.764C25.9591 240.182 19.8393 231.142 15.6622 221.171C11.485 211.2 9.33414 200.497 9.33482 189.686V186.87C9.20318 168.601 15.482 150.866 27.0783 136.75L28.1395 135.462C57.9987 99.2355 98.7381 73.5959 144.317 62.3457" stroke="url(#paint0_linear_644_1511)" stroke-width="7" stroke-linecap="square" stroke-linejoin="round"/>
<path d="M376.8 355.731C370.092 371.601 358.102 384.664 342.863 392.704C327.624 400.744 310.073 403.268 293.186 399.847C276.299 396.426 261.115 387.271 250.207 373.933C239.298 360.596 233.338 343.897 233.335 326.667" stroke="url(#paint1_linear_644_1511)" stroke-width="7" stroke-linecap="square" stroke-linejoin="round"/>
<path d="M167.335 233.333C161.294 233.333 155.312 232.143 149.731 229.832C144.15 227.52 139.079 224.132 134.808 219.86C130.536 215.589 127.148 210.518 124.836 204.937C122.525 199.356 121.335 193.374 121.335 187.333" stroke="url(#paint2_linear_644_1511)" stroke-width="7" stroke-linecap="square" stroke-linejoin="round"/>
<path d="M186.668 326.667L190.61 334.55C206.927 367.198 217.469 402.423 221.771 438.667" stroke="url(#paint3_linear_644_1511)" stroke-width="7" stroke-linecap="square" stroke-linejoin="round"/>
<path d="M277.634 438.667C275.715 422.095 272.488 405.701 267.983 389.639" stroke="url(#paint4_linear_644_1511)" stroke-width="7" stroke-linecap="square" stroke-linejoin="round"/>
<path d="M158.002 93.3333C161.293 82.5307 167.968 73.0714 177.043 66.3498C186.118 59.6282 197.112 56 208.405 56H214.667" stroke="url(#paint5_linear_644_1511)" stroke-width="7" stroke-linecap="square" stroke-linejoin="round"/>
<path d="M258.968 233.333H170.302C144.528 233.333 118.968 253.021 118.968 278.794C118.968 291.171 123.885 303.04 132.637 311.792C141.388 320.544 153.258 325.461 165.635 325.461H249.635C249.635 325.461 265.524 336.053 280.376 345.954C296.849 356.936 316.205 362.795 336.003 362.794C362.847 362.883 388.652 352.421 407.856 333.663C427.059 314.905 438.123 289.352 438.664 262.513L438.667 243.177C438.668 226.984 435.912 210.91 430.517 195.642C428.999 191.345 427.28 187.135 425.362 183.013" stroke="url(#paint6_linear_644_1511)" stroke-width="7" stroke-linecap="square" stroke-linejoin="round"/>
<path d="M157.142 127.577C160.708 123.855 160.581 117.946 156.858 114.381C153.136 110.815 147.228 110.942 143.662 114.664C140.096 118.387 140.223 124.295 143.946 127.861C147.668 131.426 153.576 131.299 157.142 127.577Z" fill="url(#paint7_linear_644_1511)"/>
<path d="M121.333 168C126.488 168 130.667 163.821 130.667 158.666C130.667 153.512 126.488 149.333 121.333 149.333C116.179 149.333 112 153.512 112 158.666C112 163.821 116.179 168 121.333 168Z" fill="url(#paint8_linear_644_1511)"/>
<path d="M208.168 261.835C204.595 253.384 198.611 246.174 190.963 241.104C183.315 236.035 174.344 233.332 165.168 233.333" stroke="url(#paint9_linear_644_1511)" stroke-width="7" stroke-linecap="square" stroke-linejoin="round"/>
<path d="M221.407 295.578C224.972 291.856 224.845 285.947 221.123 282.382C217.401 278.816 211.492 278.943 207.927 282.665C204.361 286.388 204.488 292.296 208.21 295.862C211.933 299.427 217.841 299.3 221.407 295.578Z" fill="url(#paint10_linear_644_1511)"/>
<path d="M289.333 242.667C294.488 242.667 298.667 238.488 298.667 233.333C298.667 228.179 294.488 224 289.333 224C284.179 224 280 228.179 280 233.333C280 238.488 284.179 242.667 289.333 242.667Z" fill="url(#paint11_linear_644_1511)"/>
<path d="M401.333 223.999C411.235 223.999 420.731 227.932 427.732 234.934C434.733 241.935 438.667 251.431 438.667 261.332" stroke="url(#paint12_linear_644_1511)" stroke-width="7" stroke-linecap="square" stroke-linejoin="round"/>
<path d="M401.333 37.334H289.333V149.334H401.333V37.334Z" stroke="url(#paint13_linear_644_1511)" stroke-width="7" stroke-miterlimit="10" stroke-linecap="square"/>
<path d="M317.333 112.001H336" stroke="url(#paint14_linear_644_1511)" stroke-width="7" stroke-miterlimit="10" stroke-linecap="square"/>
<path d="M354.667 112.001H373.333" stroke="url(#paint15_linear_644_1511)" stroke-width="7" stroke-miterlimit="10" stroke-linecap="square"/>
<path d="M317.333 74.667H336" stroke="url(#paint16_linear_644_1511)" stroke-width="7" stroke-miterlimit="10" stroke-linecap="square"/>
<path d="M354.667 74.667H373.333" stroke="url(#paint17_linear_644_1511)" stroke-width="7" stroke-miterlimit="10" stroke-linecap="square"/>
<path d="M345.333 149.334V196.001" stroke="url(#paint18_linear_644_1511)" stroke-width="7" stroke-miterlimit="10" stroke-linecap="square"/>
<path d="M382.667 149.334V196.001" stroke="url(#paint19_linear_644_1511)" stroke-width="7" stroke-miterlimit="10" stroke-linecap="square"/>
<path d="M289.333 56H242.667" stroke="url(#paint20_linear_644_1511)" stroke-width="7" stroke-miterlimit="10" stroke-linecap="square"/>
<path d="M289.333 93.334H242.667" stroke="url(#paint21_linear_644_1511)" stroke-width="7" stroke-miterlimit="10" stroke-linecap="square"/>
<path d="M289.333 130.667H242.667" stroke="url(#paint22_linear_644_1511)" stroke-width="7" stroke-miterlimit="10" stroke-linecap="square"/>
<path d="M308 149.334V196.001" stroke="url(#paint23_linear_644_1511)" stroke-width="7" stroke-miterlimit="10" stroke-linecap="square"/>
<path d="M401.333 56H448" stroke="url(#paint24_linear_644_1511)" stroke-width="7" stroke-miterlimit="10" stroke-linecap="square"/>
<path d="M401.333 93.334H448" stroke="url(#paint25_linear_644_1511)" stroke-width="7" stroke-miterlimit="10" stroke-linecap="square"/>
<path d="M401.333 130.667H448" stroke="url(#paint26_linear_644_1511)" stroke-width="7" stroke-miterlimit="10" stroke-linecap="square"/>
<path d="M382.666 37.3337L382.666 0" stroke="url(#paint27_linear_644_1511)" stroke-width="7" stroke-miterlimit="10" stroke-linecap="square"/>
<path d="M345.333 37.3337L345.333 0" stroke="url(#paint28_linear_644_1511)" stroke-width="7" stroke-miterlimit="10" stroke-linecap="square"/>
<path d="M307.999 37.3337L307.999 0" stroke="url(#paint29_linear_644_1511)" stroke-width="7" stroke-miterlimit="10" stroke-linecap="square"/>
</g>
<defs>
<linearGradient id="paint0_linear_644_1511" x1="76.8247" y1="62.3457" x2="76.8247" y2="271.162" gradientUnits="userSpaceOnUse">
<stop stop-color="#E35353"/>
<stop offset="1" stop-color="#E3537F"/>
</linearGradient>
<linearGradient id="paint1_linear_644_1511" x1="305.067" y1="326.667" x2="305.067" y2="401.334" gradientUnits="userSpaceOnUse">
<stop stop-color="#E35353"/>
<stop offset="1" stop-color="#E3537F"/>
</linearGradient>
<linearGradient id="paint2_linear_644_1511" x1="144.335" y1="187.333" x2="144.335" y2="233.333" gradientUnits="userSpaceOnUse">
<stop stop-color="#E35353"/>
<stop offset="1" stop-color="#E3537F"/>
</linearGradient>
<linearGradient id="paint3_linear_644_1511" x1="204.219" y1="326.667" x2="204.219" y2="438.667" gradientUnits="userSpaceOnUse">
<stop stop-color="#E35353"/>
<stop offset="1" stop-color="#E3537F"/>
</linearGradient>
<linearGradient id="paint4_linear_644_1511" x1="272.808" y1="389.639" x2="272.808" y2="438.667" gradientUnits="userSpaceOnUse">
<stop stop-color="#E35353"/>
<stop offset="1" stop-color="#E3537F"/>
</linearGradient>
<linearGradient id="paint5_linear_644_1511" x1="186.334" y1="56" x2="186.334" y2="93.3333" gradientUnits="userSpaceOnUse">
<stop stop-color="#E35353"/>
<stop offset="1" stop-color="#E3537F"/>
</linearGradient>
<linearGradient id="paint6_linear_644_1511" x1="278.817" y1="183.013" x2="278.817" y2="362.794" gradientUnits="userSpaceOnUse">
<stop stop-color="#E35353"/>
<stop offset="1" stop-color="#E3537F"/>
</linearGradient>
<linearGradient id="paint7_linear_644_1511" x1="143.662" y1="114.664" x2="157.142" y2="127.577" gradientUnits="userSpaceOnUse">
<stop stop-color="#E35353"/>
<stop offset="1" stop-color="#E3537F"/>
</linearGradient>
<linearGradient id="paint8_linear_644_1511" x1="121.333" y1="149.333" x2="121.333" y2="168" gradientUnits="userSpaceOnUse">
<stop stop-color="#E35353"/>
<stop offset="1" stop-color="#E3537F"/>
</linearGradient>
<linearGradient id="paint9_linear_644_1511" x1="186.668" y1="233.333" x2="186.668" y2="261.835" gradientUnits="userSpaceOnUse">
<stop stop-color="#E35353"/>
<stop offset="1" stop-color="#E3537F"/>
</linearGradient>
<linearGradient id="paint10_linear_644_1511" x1="207.927" y1="282.665" x2="221.407" y2="295.578" gradientUnits="userSpaceOnUse">
<stop stop-color="#E35353"/>
<stop offset="1" stop-color="#E3537F"/>
</linearGradient>
<linearGradient id="paint11_linear_644_1511" x1="289.333" y1="224" x2="289.333" y2="242.667" gradientUnits="userSpaceOnUse">
<stop stop-color="#E35353"/>
<stop offset="1" stop-color="#E3537F"/>
</linearGradient>
<linearGradient id="paint12_linear_644_1511" x1="420" y1="223.999" x2="420" y2="261.332" gradientUnits="userSpaceOnUse">
<stop stop-color="#E35353"/>
<stop offset="1" stop-color="#E3537F"/>
</linearGradient>
<linearGradient id="paint13_linear_644_1511" x1="345.333" y1="37.334" x2="345.333" y2="149.334" gradientUnits="userSpaceOnUse">
<stop stop-color="#E35353"/>
<stop offset="1" stop-color="#E3537F"/>
</linearGradient>
<linearGradient id="paint14_linear_644_1511" x1="326.667" y1="112.001" x2="326.667" y2="113.001" gradientUnits="userSpaceOnUse">
<stop stop-color="#E35353"/>
<stop offset="1" stop-color="#E3537F"/>
</linearGradient>
<linearGradient id="paint15_linear_644_1511" x1="364" y1="112.001" x2="364" y2="113.001" gradientUnits="userSpaceOnUse">
<stop stop-color="#E35353"/>
<stop offset="1" stop-color="#E3537F"/>
</linearGradient>
<linearGradient id="paint16_linear_644_1511" x1="326.667" y1="74.667" x2="326.667" y2="75.667" gradientUnits="userSpaceOnUse">
<stop stop-color="#E35353"/>
<stop offset="1" stop-color="#E3537F"/>
</linearGradient>
<linearGradient id="paint17_linear_644_1511" x1="364" y1="74.667" x2="364" y2="75.667" gradientUnits="userSpaceOnUse">
<stop stop-color="#E35353"/>
<stop offset="1" stop-color="#E3537F"/>
</linearGradient>
<linearGradient id="paint18_linear_644_1511" x1="345.833" y1="149.334" x2="345.833" y2="196.001" gradientUnits="userSpaceOnUse">
<stop stop-color="#E35353"/>
<stop offset="1" stop-color="#E3537F"/>
</linearGradient>
<linearGradient id="paint19_linear_644_1511" x1="383.167" y1="149.334" x2="383.167" y2="196.001" gradientUnits="userSpaceOnUse">
<stop stop-color="#E35353"/>
<stop offset="1" stop-color="#E3537F"/>
</linearGradient>
<linearGradient id="paint20_linear_644_1511" x1="266" y1="56" x2="266" y2="57" gradientUnits="userSpaceOnUse">
<stop stop-color="#E35353"/>
<stop offset="1" stop-color="#E3537F"/>
</linearGradient>
<linearGradient id="paint21_linear_644_1511" x1="266" y1="93.334" x2="266" y2="94.334" gradientUnits="userSpaceOnUse">
<stop stop-color="#E35353"/>
<stop offset="1" stop-color="#E3537F"/>
</linearGradient>
<linearGradient id="paint22_linear_644_1511" x1="266" y1="130.667" x2="266" y2="131.667" gradientUnits="userSpaceOnUse">
<stop stop-color="#E35353"/>
<stop offset="1" stop-color="#E3537F"/>
</linearGradient>
<linearGradient id="paint23_linear_644_1511" x1="308.5" y1="149.334" x2="308.5" y2="196.001" gradientUnits="userSpaceOnUse">
<stop stop-color="#E35353"/>
<stop offset="1" stop-color="#E3537F"/>
</linearGradient>
<linearGradient id="paint24_linear_644_1511" x1="424.667" y1="56" x2="424.667" y2="57" gradientUnits="userSpaceOnUse">
<stop stop-color="#E35353"/>
<stop offset="1" stop-color="#E3537F"/>
</linearGradient>
<linearGradient id="paint25_linear_644_1511" x1="424.667" y1="93.334" x2="424.667" y2="94.334" gradientUnits="userSpaceOnUse">
<stop stop-color="#E35353"/>
<stop offset="1" stop-color="#E3537F"/>
</linearGradient>
<linearGradient id="paint26_linear_644_1511" x1="424.667" y1="130.667" x2="424.667" y2="131.667" gradientUnits="userSpaceOnUse">
<stop stop-color="#E35353"/>
<stop offset="1" stop-color="#E3537F"/>
</linearGradient>
<linearGradient id="paint27_linear_644_1511" x1="382.666" y1="0" x2="382.666" y2="37.3337" gradientUnits="userSpaceOnUse">
<stop stop-color="#E35353"/>
<stop offset="1" stop-color="#E3537F"/>
</linearGradient>
<linearGradient id="paint28_linear_644_1511" x1="345.333" y1="0" x2="345.333" y2="37.3337" gradientUnits="userSpaceOnUse">
<stop stop-color="#E35353"/>
<stop offset="1" stop-color="#E3537F"/>
</linearGradient>
<linearGradient id="paint29_linear_644_1511" x1="307.999" y1="0" x2="307.999" y2="37.3337" gradientUnits="userSpaceOnUse">
<stop stop-color="#E35353"/>
<stop offset="1" stop-color="#E3537F"/>
</linearGradient>
<clipPath id="clip0_644_1511">
<rect width="448" height="448" fill="white"/>
</clipPath>
</defs>
</svg>
