<svg width="182" height="54" viewBox="0 0 182 54" fill="none" xmlns="http://www.w3.org/2000/svg">
<path d="M22.886 1.505H29.126V29H22.886V18.353H9.08V29H2.84V1.505H9.08V12.893H22.886V1.505ZM51.831 1.505H58.5L48.282 20.147V29H42.042V20.147L31.863 1.505H38.532L44.382 12.971V16.481H45.942V12.971L51.831 1.505ZM60.0466 1.505H66.0916L70.4596 27.44H72.0196L75.4126 1.505H88.6726L92.0656 27.44H93.6256L97.9936 1.505H104.039L99.3196 29H86.3716L82.8226 3.065H81.2626L77.7136 29H64.7656L60.0466 1.505ZM124.138 29L121.642 20.186H110.488L108.031 29H101.713L109.63 1.505H122.5L130.456 29H124.138ZM112.009 14.726H120.121L116.845 3.065H115.285L112.009 14.726ZM156.247 21.434C156.247 26.153 152.932 29.39 144.469 29.39C134.562 29.39 130.858 25.334 130.858 18.392H137.098C137.098 22.604 139.204 23.93 144.664 23.93C148.681 23.93 150.007 22.994 150.007 21.512C150.007 19.523 146.653 18.626 142.636 17.261C136.825 15.311 132.106 13.751 132.106 8.369C132.106 3.689 135.811 1.115 142.909 1.115C151.333 1.115 155.116 5.405 155.116 10.865H148.876C148.876 7.511 146.302 6.575 142.909 6.575C140.101 6.575 138.346 7.199 138.346 8.603C138.346 9.851 139.009 10.319 143.416 11.801C148.486 13.517 156.247 15.701 156.247 21.434ZM180.061 1.505V6.965H171.091V29H164.851V6.965H155.842V1.505H180.061Z" fill="url(#paint0_linear_713_1109)"/>
<path d="M0.9855 48V38.4825H3.51C5.832 38.4825 7.1685 38.9415 7.1685 40.818C7.1685 42.195 6.2505 42.762 5.265 42.8295V43.1535C6.723 43.1805 7.8705 43.7745 7.8705 45.4755C7.8705 47.3925 6.426 48 4.1175 48H0.9855ZM2.0925 42.573H3.5505C5.103 42.573 6.0615 42.3435 6.0615 40.9935C6.0615 39.522 5.103 39.4275 3.5505 39.4275H2.0925V42.573ZM2.0925 47.055H4.158C5.778 47.055 6.7635 46.785 6.7635 45.2865C6.7635 43.896 5.778 43.518 4.158 43.518H2.0925V47.055ZM15.4263 38.4825H16.6143L13.1583 44.4495V48H12.0648V44.4495L8.60878 38.4825H9.79678L12.4563 43.1265V43.896H12.7668V43.1265L15.4263 38.4825ZM30.6031 38.4825H31.6966V48H30.6031V43.7745H24.9871V48H23.8801V38.4825H24.9871V42.8295H30.6031V38.4825ZM40.6017 38.4825H41.7897L38.3337 44.4495V48H37.2402V44.4495L33.7842 38.4825H34.9722L37.6317 43.1265V43.896H37.9422V43.1265L40.6017 38.4825ZM43.3581 38.4825H44.4111L46.3551 47.6895H46.6791L48.6096 38.4825H50.8911L52.8216 47.6895H53.1456L55.0896 38.4825H56.1426L54.1176 48H51.8631L49.9056 38.793H49.5951L47.6511 48H45.3966L43.3581 38.4825ZM57.5426 43.2345C57.5426 40.467 59.1896 38.3475 61.9976 38.3475C64.7786 38.3475 66.4256 40.467 66.4256 43.2345C66.4256 46.0155 64.7786 48.135 61.9976 48.135C59.1896 48.135 57.5426 46.0155 57.5426 43.2345ZM58.6496 43.2345C58.6496 45.516 59.7431 47.19 61.9976 47.19C64.2386 47.19 65.3186 45.516 65.3186 43.2345C65.3186 40.9665 64.2386 39.2925 61.9976 39.2925C59.7431 39.2925 58.6496 40.9665 58.6496 43.2345ZM69.4988 48.135C68.9723 48.1485 68.6753 47.838 68.6753 47.325V38.4825H69.7823V47.19L74.5748 47.055V48L69.4988 48.135ZM76.6804 48V38.4825H82.9174V39.4275H77.7874V43.221L82.2829 42.951V43.9095L77.7874 44.1795V48H76.6804ZM89.7339 48L92.9469 43.5045V42.9645L89.7339 38.4825H92.2179L94.7829 42.1275L97.3614 38.4825H99.8454L96.6189 42.9645V43.5045L99.8454 48H97.3614L94.7829 44.3415L92.2179 48H89.7339ZM113.711 48L112.51 44.274H108.689L107.501 48H106.394L109.472 38.4825H111.74L114.805 48H113.711ZM109 43.329H112.213L110.755 38.793H110.444L109 43.329ZM123.949 45.597C123.949 47.0145 123.099 48.135 120.291 48.135C116.97 48.135 115.984 46.6635 115.984 44.436H117.091C117.091 46.6905 118.293 47.19 120.291 47.19C121.911 47.19 122.842 46.7985 122.842 45.651C122.842 44.2065 121.168 43.9095 119.656 43.464C117.78 42.897 116.416 42.384 116.416 40.6965C116.416 39.2385 117.442 38.3475 119.791 38.3475C122.599 38.3475 123.558 40.062 123.558 41.6145H122.451C122.451 39.9945 121.249 39.2925 119.791 39.2925C118.482 39.2925 117.523 39.6165 117.523 40.6695C117.523 41.6685 118.36 42.033 119.926 42.519C121.789 43.0995 123.949 43.6125 123.949 45.597ZM132.542 38.4825V39.4275H129.248V48H128.154V39.4275H124.833V38.4825H132.542ZM133.385 43.2345C133.385 40.467 135.032 38.3475 137.84 38.3475C140.621 38.3475 142.268 40.467 142.268 43.2345C142.268 46.0155 140.621 48.135 137.84 48.135C135.032 48.135 133.385 46.0155 133.385 43.2345ZM134.492 43.2345C134.492 45.516 135.586 47.19 137.84 47.19C140.081 47.19 141.161 45.516 141.161 43.2345C141.161 40.9665 140.081 39.2925 137.84 39.2925C135.586 39.2925 134.492 40.9665 134.492 43.2345ZM144.518 48V38.4825H147.677C149.945 38.4825 151.389 39.009 151.389 41.142C151.389 42.573 150.647 43.2075 149.621 43.383V43.707H150.755C151.295 43.707 151.511 43.923 151.511 44.4225V48H150.404V44.1795H145.625V48H144.518ZM145.625 43.2345H147.677C149.297 43.2345 150.282 43.0725 150.282 41.331C150.282 39.576 149.297 39.4275 147.677 39.4275H145.625V43.2345ZM159.46 38.4825H160.648L157.192 44.4495V48H156.098V44.4495L152.642 38.4825H153.83L156.49 43.1265V43.896H156.8V43.1265L159.46 38.4825ZM161.276 43.2345C161.276 40.467 162.923 38.3475 165.731 38.3475C168.512 38.3475 170.159 40.467 170.159 43.2345C170.159 46.0155 168.512 48.135 165.731 48.135C162.923 48.135 161.276 46.0155 161.276 43.2345ZM162.383 43.2345C162.383 45.516 163.477 47.19 165.731 47.19C167.972 47.19 169.052 45.516 169.052 43.2345C169.052 40.9665 167.972 39.2925 165.731 39.2925C163.477 39.2925 162.383 40.9665 162.383 43.2345ZM172.409 48V38.4825H174.637L179.389 47.6895H179.699L179.524 46.893V38.4825H180.617V48H178.39L173.651 38.793H173.341L173.516 39.5895V48H172.409Z" fill="url(#paint1_linear_713_1109)"/>
<defs>
<linearGradient id="paint0_linear_713_1109" x1="91" y1="0" x2="91" y2="38" gradientUnits="userSpaceOnUse">
<stop stop-color="#E35353"/>
<stop offset="1" stop-color="#E3537F"/>
</linearGradient>
<linearGradient id="paint1_linear_713_1109" x1="91" y1="38" x2="91" y2="51" gradientUnits="userSpaceOnUse">
<stop stop-color="#E35353"/>
<stop offset="1" stop-color="#E3537F"/>
</linearGradient>
</defs>
</svg>
