<svg width="268" height="108" viewBox="0 0 268 108" fill="none" xmlns="http://www.w3.org/2000/svg">
<path d="M3.84 29.4C1.64 29.44 0.4 28.24 0.4 26.04V0.799998H6.8V23.8L20.52 23.4V29L3.84 29.4ZM23.7203 29V0.799998H43.8403V6.4H30.1203V12.08H41.8403V17.68H30.1203V23.4H43.8403V29H23.7203ZM71.4619 0.799998V6.4H62.2619V29H55.8619V6.4H46.6219V0.799998H71.4619ZM114.766 14.88C114.766 6.68 120.206 0.399999 129.166 0.399999C138.086 0.399999 143.526 6.68 143.526 14.88C143.526 23.12 138.086 29.4 129.166 29.4C120.206 29.4 114.766 23.12 114.766 14.88ZM121.166 14.88C121.166 20.32 123.846 23.8 129.166 23.8C134.486 23.8 137.126 20.32 137.126 14.88C137.126 9.48 134.486 6 129.166 6C123.846 6 121.166 9.48 121.166 14.88ZM146.748 18.52V0.799998H153.148V15.68C153.148 20.72 153.588 23.8 159.468 23.8C165.348 23.8 165.828 20.72 165.828 15.68V0.799998H172.228V18.52C172.228 25.56 167.828 29.4 159.468 29.4C151.108 29.4 146.748 25.56 146.748 18.52ZM175.83 29V0.799998H186.75C193.47 0.799998 199.31 2.36 199.31 8.68C199.31 13.32 195.55 14.6 192.15 15V16.6H196.27C198.47 16.6 199.67 17.8 199.67 20V29H193.27V19.08H182.23V29H175.83ZM182.23 13.48H186.75C190.55 13.48 192.91 13.48 192.91 9.96C192.91 6.4 190.55 6.4 186.75 6.4H182.23V13.48ZM2.98023e-08 53.88C2.98023e-08 45.68 5.52 39.4 14.48 39.4C22.36 39.4 27.56 43.72 28.4 50.68H22C21.36 46.96 18.4 45 14.56 45C9.64 45 6.4 48.08 6.4 53.88C6.4 59.72 9.64 62.8 14.56 62.8C18.4 62.8 21.36 60.8 22 57.08H28.4C27.56 64.08 22.36 68.4 14.48 68.4C5.52 68.4 2.98023e-08 62.12 2.98023e-08 53.88ZM32.0016 68V39.8H42.9216C49.6416 39.8 55.4816 41.36 55.4816 47.68C55.4816 52.32 51.7216 53.6 48.3216 54V55.6H52.4416C54.6416 55.6 55.8416 56.8 55.8416 59V68H49.4416V58.08H38.4016V68H32.0016ZM38.4016 52.48H42.9216C46.7216 52.48 49.0816 52.48 49.0816 48.96C49.0816 45.4 46.7216 45.4 42.9216 45.4H38.4016V52.48ZM59.8531 68V39.8H79.9731V45.4H66.2531V51.08H77.9731V56.68H66.2531V62.4H79.9731V68H59.8531ZM105.355 68L102.795 58.96H91.3547L88.8347 68H82.3547L90.4747 39.8H103.675L111.835 68H105.355ZM92.9147 53.36H101.235L97.8747 41.4H96.2747L92.9147 53.36ZM133.493 39.8V45.4H124.293V68H117.893V45.4H108.653V39.8H133.493ZM155.88 45.4H149.48V62.4H155.88V68H136.68V62.4H143.08V45.4H136.68V39.8H155.88V45.4ZM158.683 39.8H165.163L172.603 66.4H174.203L181.683 39.8H188.163L180.003 68H166.803L158.683 39.8ZM210.177 45.4H203.777V62.4H210.177V68H190.977V62.4H197.377V45.4H190.977V39.8H210.177V45.4ZM238.22 39.8V45.4H229.02V68H222.62V45.4H213.38V39.8H238.22ZM260.686 39.8H267.526L257.046 58.92V68H250.646V58.92L240.206 39.8H247.046L253.046 51.56V55.16H254.646V51.56L260.686 39.8ZM0.4 107V78.8H20.52V84.4H6.8V90.08H18.52V95.68H6.8V101.4H20.52V107H0.4ZM22.9016 78.8H29.3816L36.8216 105.4H38.4216L45.9016 78.8H52.3816L44.2216 107H31.0216L22.9016 78.8ZM52.3828 92.88C52.3828 84.68 57.8228 78.4 66.7828 78.4C75.7028 78.4 81.1428 84.68 81.1428 92.88C81.1428 101.12 75.7028 107.4 66.7828 107.4C57.8228 107.4 52.3828 101.12 52.3828 92.88ZM58.7828 92.88C58.7828 98.32 61.4628 101.8 66.7828 101.8C72.1028 101.8 74.7428 98.32 74.7428 92.88C74.7428 87.48 72.1028 84 66.7828 84C61.4628 84 58.7828 87.48 58.7828 92.88ZM88.215 107.4C86.015 107.44 84.775 106.24 84.775 104.04V78.8H91.175V101.8L104.895 101.4V107L88.215 107.4ZM101.3 78.8H107.78L115.22 105.4H116.82L124.3 78.8H130.78L122.62 107H109.42L101.3 78.8ZM133.213 107V78.8H153.333V84.4H139.613V90.08H151.333V95.68H139.613V101.4H153.333V107H133.213Z" fill="url(#paint0_linear_766_1524)"/>
<path d="M105.139 0.799998H111.979L101.499 19.92V29H95.0994V19.92L84.6594 0.799998H91.4994L97.4994 12.56V16.16H99.0994V12.56L105.139 0.799998Z" fill="#491D1D"/>
<defs>
<linearGradient id="paint0_linear_766_1524" x1="149" y1="-1" x2="149" y2="148" gradientUnits="userSpaceOnUse">
<stop stop-color="#E35353"/>
<stop offset="1" stop-color="#480041"/>
</linearGradient>
</defs>
</svg>
